<svg width="32px" height="32px" viewBox="0 0 32 32" version="1.1" xmlns="http://www.w3.org/2000/svg"
     xmlns:xlink="http://www.w3.org/1999/xlink">
    <g stroke="none" stroke-width="1" fill="none" fill-rule="evenodd">
        <path d="M30.2344828,0 L1.76551724,0 C0.790448993,0 0,0.790448993 0,1.76551724 L0,30.2344828 C0,31.209551 0.790448993,32 1.76551724,32 L17.1034483,32 L17.1034483,19.6248276 L12.937931,19.6248276 L12.937931,14.7806897 L17.1034483,14.7806897 L17.1034483,11.2165517 C17.1034483,7.08413793 19.6303448,4.83310345 23.3158621,4.83310345 C24.5578338,4.83039494 25.7990885,4.89301016 27.0344828,5.02068966 L27.0344828,9.34068966 L24.4965517,9.34068966 C22.4882759,9.34068966 22.0965517,10.2896552 22.0965517,11.6910345 L22.0965517,14.7751724 L26.8965517,14.7751724 L26.2731034,19.6193103 L22.0689655,19.6193103 L22.0689655,32 L30.2344828,32 C31.209551,32 32,31.209551 32,30.2344828 L32,1.76551724 C32,0.790448993 31.209551,0 30.2344828,0 Z"
              id="Icon" fill="#1d4f7d">
        </path>
    </g>
</svg>