<svg width="32px" height="32px" viewBox="0 0 32 32" version="1.1" xmlns="http://www.w3.org/2000/svg"
     xmlns:xlink="http://www.w3.org/1999/xlink">
    <g stroke="none" stroke-width="1" fill="none" fill-rule="evenodd">
        <path d="M17.3483434,0.000782949024 C20.4850541,0.00498639978 21.085246,0.0273174615 22.5967795,0.0962843437 C24.299793,0.173959642 25.4628901,0.444457676 26.480608,0.840011035 C27.5327494,1.24883842 28.4250309,1.79593165 29.3145814,2.68541861 C30.2040683,3.57496909 30.7511616,4.46725058 31.1600525,5.51939203 C31.5555423,6.53710992 31.8260404,7.70020701 31.9037157,9.40322046 C31.9726825,10.914754 31.9950136,11.5149459 31.9992171,14.6517008 L31.9999539,15.636763 L31.9999539,15.636763 L32,16.0000318 C32,16.1241834 31.999985,16.2452326 31.9999539,16.3632952 L31.9992171,17.3483434 C31.9950136,20.4850541 31.9726825,21.085246 31.9037157,22.5967795 C31.8260404,24.299793 31.5555423,25.4628901 31.1600525,26.480608 C30.7511616,27.5327494 30.2040683,28.4250309 29.3145814,29.3145814 C28.4250309,30.2040683 27.5327494,30.7511616 26.480608,31.1600525 C25.4628901,31.5555423 24.299793,31.8260404 22.5967795,31.9037157 C21.085246,31.9726825 20.4850541,31.9950136 17.3483434,31.9992171 L16.3632952,31.9999539 L16.3632952,31.9999539 L16.0000318,32 C15.8758783,32 15.7548273,31.999985 15.636763,31.9999539 L14.6517008,31.9992171 C11.5149459,31.9950136 10.914754,31.9726825 9.40322046,31.9037157 C7.70020701,31.8260404 6.53710992,31.5555423 5.51939203,31.1600525 C4.46725058,30.7511616 3.57496909,30.2040683 2.68541861,29.3145814 C1.79593165,28.4250309 1.24883842,27.5327494 0.840011035,26.480608 C0.444457676,25.4628901 0.173959642,24.299793 0.0962843437,22.5967795 C0.0273174615,21.085246 0.00498639978,20.4850541 0.000782949024,17.3483434 L0.000782949024,14.6517008 C0.00498639978,11.5149459 0.0273174615,10.914754 0.0962843437,9.40322046 C0.173959642,7.70020701 0.444457676,6.53710992 0.840011035,5.51939203 C1.24883842,4.46725058 1.79593165,3.57496909 2.68541861,2.68541861 C3.57496909,1.79593165 4.46725058,1.24883842 5.51939203,0.840011035 C6.53710992,0.444457676 7.70020701,0.173959642 9.40322046,0.0962843437 C10.914754,0.0273174615 11.5149459,0.00498639978 14.6517008,0.000782949024 Z M16.3571076,2.88291874 L15.6429506,2.88291874 C15.526921,2.88294642 15.4138504,2.88298847 15.3036235,2.8830459 L14.6754622,2.88358349 C11.5967287,2.88740083 11.0289469,2.90799768 9.534627,2.97617701 C7.97464279,3.04731056 7.12745489,3.30796422 6.56365798,3.52708096 C5.81681919,3.81733126 5.28382565,4.16404382 4.72396649,4.72396649 C4.16404382,5.28382565 3.81733126,5.81681919 3.52708096,6.56365798 C3.30796422,7.12745489 3.04731056,7.97464279 2.97617701,9.534627 C2.90799768,11.0289469 2.88740083,11.5967287 2.88358349,14.6754622 L2.8830459,15.3036235 C2.88293103,15.5240774 2.88287773,15.7559058 2.88287773,16.0000318 L2.88291874,16.3571076 C2.88294642,16.4731355 2.88298847,16.5862044 2.8830459,16.6964298 L2.88358349,17.3245819 C2.88740083,20.4032713 2.90799768,20.9710531 2.97617701,22.465373 C3.04731056,24.0253572 3.30796422,24.8725451 3.52708096,25.436342 C3.81733126,26.1831808 4.16410733,26.7161743 4.72396649,27.2760335 C5.28382565,27.8359562 5.81681919,28.1826687 6.56365798,28.472919 C7.12745489,28.6920358 7.97464279,28.9526894 9.534627,29.023823 C11.0287782,29.0920023 11.596441,29.1125992 14.6753702,29.1164165 L15.3035733,29.1169541 C15.5240425,29.117069 15.7558876,29.1171223 16.0000318,29.1171223 L16.3571339,29.1170813 C16.4731703,29.1170536 16.5862473,29.1170115 16.6964805,29.1169541 L17.3246761,29.1164165 C20.4035718,29.1125992 20.9712781,29.0920023 22.465373,29.023823 C24.0253572,28.9526894 24.8725451,28.6920358 25.436342,28.472919 C26.1831808,28.1826687 26.7161743,27.8359562 27.2760335,27.2760335 C27.8359562,26.7161743 28.1826687,26.1831808 28.472919,25.436342 C28.6920358,24.8725451 28.9526894,24.0253572 29.023823,22.465373 C29.0920023,20.9710531 29.1125992,20.4032713 29.1164165,17.3245819 L29.1169541,16.6964298 C29.117069,16.4759791 29.1171223,16.2441541 29.1171223,16.0000318 L29.1170813,15.6429506 C29.1170536,15.526921 29.1170115,15.4138504 29.1169541,15.3036235 L29.1164165,14.6754622 C29.1125992,11.5967287 29.0920023,11.0289469 29.023823,9.534627 C28.9526894,7.97464279 28.6920358,7.12745489 28.472919,6.56365798 C28.1826687,5.81681919 27.8359562,5.28382565 27.2760335,4.72396649 C26.7161743,4.16404382 26.1831808,3.81733126 25.436342,3.52708096 C24.8725451,3.30796422 24.0253572,3.04731056 22.465373,2.97617701 C20.9710531,2.90799768 20.4032713,2.88740083 17.3245819,2.88358349 L16.6964298,2.8830459 C16.4759791,2.88293103 16.2441541,2.88287773 16.0000318,2.88287773 Z M16.0000318,7.78378893 C20.5377173,7.78378893 24.2162111,11.4622827 24.2162111,16.0000318 C24.2162111,20.5377173 20.5377173,24.2162111 16.0000318,24.2162111 C11.4622827,24.2162111 7.78378893,20.5377173 7.78378893,16.0000318 C7.78378893,11.4622827 11.4622827,7.78378893 16.0000318,7.78378893 Z M16.0000318,10.6666667 C18.9455324,10.6666667 21.3333333,13.0544676 21.3333333,16.0000318 C21.3333333,18.9455324 18.9455324,21.3333333 16.0000318,21.3333333 C13.0544676,21.3333333 10.6666667,18.9455324 10.6666667,16.0000318 C10.6666667,13.0544676 13.0544676,10.6666667 16.0000318,10.6666667 Z M24.5408214,5.53914429 C25.6012194,5.53914429 26.4608557,6.39878057 26.4608557,7.45917859 C26.4608557,8.51957661 25.6012194,9.37914937 24.5408214,9.37914937 C23.4804869,9.37914937 22.6208506,8.51957661 22.6208506,7.45917859 C22.6208506,6.39878057 23.4804869,5.53914429 24.5408214,5.53914429 Z"
              id="Icon" fill="#4b90cd">
        </path>
    </g>
</svg>